Coordinates
version=1
nRows=19
nColumns=36
inDegrees=yes

Units are S.I. units (second, meters, Newtons, ...)
If the header above contains a line with 'inDegrees', this indicates whether rotational values are in degrees (yes) or radians (no).

endheader
time	pelvis_tilt	pelvis_list	pelvis_rotation	pelvis_tx	pelvis_ty	pelvis_tz	hip_flexion_r	hip_adduction_r	hip_rotation_r	knee_angle_r	knee_angle_r_beta	ankle_angle_r	subtalar_angle_r	mtp_angle_r	hip_flexion_l	hip_adduction_l	hip_rotation_l	knee_angle_l	knee_angle_l_beta	ankle_angle_l	subtalar_angle_l	mtp_angle_l	lumbar_extension	lumbar_bending	lumbar_rotation	arm_flex_r	arm_add_r	arm_rot_r	elbow_flex_r	pro_sup_r	arm_flex_l	arm_add_l	arm_rot_l	elbow_flex_l	pro_sup_l
      0.00000000	     -3.46340915	      1.84063603	     -6.55781098	     -0.11450856	      1.40066049	     -0.13218202	      4.88775700	     -2.88225941	      3.24122899	      3.33508217	      0.05820816	      1.93317786	    -12.93741492	     -6.58159499	      6.05632786	      0.37593570	      0.00139008	      7.97879717	      0.13925628	      7.09786721	     -4.17752469	     -6.58159499	     -6.90232447	     -1.31706504	     -1.23225692	      6.73218816	    -10.23014074	     -0.68621835	     20.93815963	     97.16792230	      8.18688666	    -10.99695956	      0.06643997	     24.53580546	     98.17969372
      0.01666670	     -4.35305414	      1.60498121	     -7.66842035	     -0.11281729	      1.39890345	     -0.13139383	      5.81602334	     -2.35052026	      4.87169975	      2.77699168	      0.04846765	      2.04977778	    -12.13617117	     -7.19559678	      6.42052545	     -0.01060560	     -0.65020346	      7.03257771	      0.12274164	      5.79302711	     -5.12122536	     -7.19559678	     -6.12260007	     -0.82686936	     -0.46041205	      7.24794385	    -10.34670990	      0.23855673	     20.50734334	     99.11447435	      7.57246142	    -10.49980200	     -0.08613025	     24.82955813	    100.28079653
      0.03333330	     -4.68388466	      1.59292073	     -8.01850120	     -0.11271856	      1.39644974	     -0.13132661	      6.25921143	     -2.30119299	      5.64749535	      2.64770227	      0.04621112	      1.40835581	    -11.94136474	     -7.23461035	      6.39402667	     -0.10668544	     -0.67251083	      6.01524389	      0.10498581	      4.70243327	     -5.33530131	     -7.23461035	     -5.97289767	     -0.57783316	     -0.30783765	      7.33676489	    -10.48443411	      0.64235356	     20.10846105	     97.57152896	      7.69495625	    -10.38186786	      0.40554420	     24.66514436	     98.77522432
      0.05000000	     -4.85122517	      1.57368409	     -7.99802177	     -0.11334032	      1.39365140	     -0.13129822	      6.62678508	     -2.35922397	      5.62718155	      2.97017427	      0.05183932	      1.67938489	    -11.34906390	     -7.26581567	      6.72624219	     -0.17676993	     -0.82167957	      5.90297661	      0.10302638	      4.66731094	     -5.32954609	     -7.26581567	     -5.91053274	     -0.40094727	     -0.46403108	      7.59997244	    -10.61558505	      1.24093990	     19.81545166	     96.81221326	      7.90943465	    -10.48392170	      1.16825974	     24.52360686	     98.18922106
      0.06666670	     -5.10101261	      1.64674510	     -8.11058395	     -0.11383548	      1.39676600	     -0.13164716	      7.07082184	     -2.43806402	      5.71946008	      3.54351191	      0.06184595	      2.56604748	    -10.20888100	     -7.33437307	      7.05045294	     -0.18183026	     -0.92152909	      6.02921334	      0.10522962	      4.96591449	     -5.17962381	     -7.33437307	     -5.58727414	     -0.36555197	     -0.34968535	      7.74655333	    -10.79729802	      1.34779701	     19.58279272	    101.19748531	      7.97457270	    -10.54412698	      1.15048226	     24.12020497	    103.30819183
      0.08333330	     -5.26642939	      1.91969969	     -8.40714523	     -0.11486032	      1.40017265	     -0.13090341	      7.69504793	     -2.74247453	      5.61555021	      4.28336884	      0.07475889	      3.32796063	     -9.27459290	     -7.36800770	      7.40927820	     -0.02010454	     -1.33933719	      6.32806768	      0.11044562	      5.12043040	     -4.70222147	     -7.36800770	     -5.43724471	     -0.62899086	     -0.27304190	      8.18362016	    -10.81046025	      2.27997785	     19.02298946	    101.05377111	      8.13388531	    -10.82806904	      1.78894816	     23.89153074	    103.21079958
      0.10000000	     -5.63206158	      2.20503101	     -8.51378968	     -0.11550430	      1.39936503	     -0.13119164	      8.49204310	     -3.05628491	      5.35539855	      4.83335549	      0.08435797	      3.73600068	     -8.84140680	     -7.37531012	      8.01936697	      0.17473915	     -1.38656295	      6.70248570	      0.11698044	      5.31606148	     -4.58284528	     -7.37531012	     -5.19438565	     -0.85704999	     -0.17138419	      7.92388392	    -10.89164331	      2.28573520	     19.75634550	    100.09953581	      7.63717877	    -11.05450236	      1.74308119	     24.58589314	    102.24922394
      0.11666670	     -5.29217805	      2.41322484	     -8.96224649	     -0.10652645	      1.39944187	     -0.13215174	      8.52213744	     -3.32881245	      5.32180155	      5.47880453	      0.09562318	      3.88925077	     -8.76713589	     -7.37588180	      7.52956349	      0.38427583	     -1.72510827	      6.83103447	      0.11922404	      5.49454399	     -4.50564642	     -7.37588180	     -5.34994432	     -1.11757012	      0.07233333	      7.96348162	    -10.92121566	      2.35242428	     19.45842756	    100.20234058	      7.12675809	    -11.14229329	      1.70474563	     24.05340353	    102.33957490
      0.13333330	     -4.69850624	      2.41763611	     -9.45273676	     -0.09893231	      1.39625885	     -0.12702906	      7.88425148	     -3.34236619	      5.33991011	      5.96977496	      0.10419223	      4.63587569	     -7.96596046	     -7.38049713	      6.66627775	      0.39625333	     -2.17204012	      6.85554548	      0.11965184	      5.65751040	     -4.07275000	     -7.38049713	     -5.41666493	     -1.30410804	      0.37525490	      8.47385123	    -10.92483388	      4.12562551	     17.40897959	    101.47435094	      7.07080982	    -11.12111734	      1.47705863	     22.24511663	    103.50740603
      0.15000000	     -4.15904881	      2.43466194	     -9.81115712	     -0.10865518	      1.39739582	     -0.13145308	      7.32963828	     -3.37071292	      5.73503072	      6.22154062	      0.10858637	      4.67808956	     -8.26455025	     -7.39285885	      5.95214119	      0.44667924	     -2.73601814	      6.89194125	      0.12028707	      6.25442902	     -3.10261659	     -7.39285885	     -5.93682322	     -1.42721033	      0.50173716	      8.62927037	    -11.13670939	      5.10410865	     17.26545810	    101.81073868	      6.77898696	    -11.26542857	      1.50073593	     22.01796451	    104.19496440
      0.16666670	     -3.84750438	      2.33786378	    -10.13296285	     -0.11085848	      1.39751946	     -0.12500936	      7.07579365	     -3.18937664	      5.92134432	      6.75219406	      0.11784802	      4.90292108	     -8.38452499	     -7.39385665	      5.63465365	      0.32135961	     -2.79486484	      7.16329769	      0.12502313	      6.41757151	     -3.23423445	     -7.39385665	     -6.18973607	     -1.48410629	      0.57322160	      8.57821373	    -11.10697949	      5.05207155	     17.25969500	    101.88939554	      6.66264034	    -11.43544436	      1.37548524	     21.89439273	    104.28799772
      0.18333330	     -3.70970678	      2.36192710	    -10.21764809	     -0.12022849	      1.39798412	     -0.12982998	      7.11787900	     -3.16664218	      6.11178790	      7.04923665	      0.12303239	      4.94384781	     -8.49933002	     -7.39452085	      5.62012837	      0.34090471	     -2.78501154	      7.31843169	      0.12773073	      6.55389165	     -3.25977033	     -7.39452085	     -6.56555615	     -1.58824173	      0.56164128	      8.87460725	    -11.10091734	      5.03123626	     17.44692841	    101.94400529	      6.89798436	    -11.59311237	      1.31796488	     21.94197739	    104.37139614
      0.20000000	     -3.39649839	      2.30196088	    -10.50941904	     -0.12061236	      1.39810126	     -0.13001852	      6.93732123	     -3.10264724	      6.39370893	      7.28777879	      0.12719574	      4.99962907	     -8.79381143	     -7.40064921	      5.28585335	      0.29776625	     -2.87694809	      7.43628353	      0.12978763	      6.67841737	     -3.36541136	     -7.40064921	     -7.19710950	     -1.62454341	      0.65999689	      9.15285357	    -11.15092207	      5.11090141	     17.95406421	    101.38459506	      7.06908678	    -11.70154198	      1.23429423	     22.19369641	    103.84223505
      0.21666670	     -3.25679525	      2.26095512	    -10.68097241	     -0.12130722	      1.39506781	     -0.12971239	      6.92114724	     -3.01981438	      6.67234884	      7.46079055	      0.13021536	      4.92365443	     -9.13581421	     -7.40460309	      5.31003321	      0.23616170	     -2.74199235	      7.73840233	      0.13506060	      6.73756099	     -3.67123812	     -7.40460309	     -7.48039622	     -1.62014635	      0.64059288	      9.49836002	    -11.19236140	      5.67533423	     18.09735596	    101.26901301	      7.39906841	    -11.77149628	      1.37928218	     22.24745790	    104.27712753
      0.23333330	     -3.09597139	      2.20441706	    -10.74794969	     -0.12134808	      1.39502494	     -0.13000359	      6.80657746	     -2.97162493	      6.72679652	      7.55095048	      0.13178895	      5.10577740	     -8.96376636	     -7.40962394	      5.30006682	      0.16956491	     -2.92178265	      7.95704409	      0.13887662	      7.05353434	     -3.43847985	     -7.40962394	     -7.89809199	     -1.62042071	      0.60423877	      9.48987524	    -11.25835005	      5.72934492	     18.56777318	    103.18504846	      7.77163794	    -11.86475710	      1.39331289	     22.59366968	    106.85689344
      0.25000000	     -3.04189324	      2.18608506	    -10.77340280	     -0.11149504	      1.39539995	     -0.13145237	      6.74239363	     -2.98507939	      6.78723179	      7.61605852	      0.13292530	      5.16326790	     -8.96679982	     -7.40973185	      5.19559167	      0.18382132	     -2.92089593	      7.96294688	      0.13897964	      7.08047741	     -3.46514074	     -7.40973185	     -7.88506950	     -1.55917256	      0.48485874	      9.37312069	    -11.18357392	      5.73550137	     18.54664160	    103.19163945	      7.85640851	    -11.73389678	      1.40481617	     22.65927261	    106.86273820
      0.26666670	     -2.49785950	      2.05370303	    -10.81395308	     -0.11172957	      1.39936785	     -0.13180471	      5.97391557	     -2.98685014	      6.77362518	      7.41910636	      0.12948783	      5.51869241	     -8.89337824	     -7.42300707	      4.42763848	      0.18549420	     -2.75667112	      7.84038564	      0.13684054	      7.05628188	     -3.66746546	     -7.42300707	     -8.52814004	     -1.50106988	      0.46558826	      9.45270261	    -11.23120136	      6.01313656	     18.76395231	    103.45629334	      7.94411386	    -11.64532001	      1.57544325	     23.04709858	    107.52374887
      0.28333330	     -2.50335846	      2.04068507	    -10.80135623	     -0.12202335	      1.39967037	     -0.12992913	      5.93979943	     -2.97200610	      6.84206591	      7.41149204	      0.12935494	      5.58491824	     -8.88969729	     -7.42308214	      4.45558746	      0.14754765	     -2.81550322	      7.88091633	      0.13754794	      7.05428362	     -3.69978248	     -7.42308214	     -8.44629526	     -1.49150824	      0.30452787	      9.53413781	    -11.16566082	      6.01780856	     18.81228917	    103.45944475	      8.28731679	    -11.57413988	      1.58940109	     23.19865987	    107.52575422
      0.30000000	     -2.34601919	      1.94418436	    -10.86597196	     -0.11382290	      1.39932876	     -0.12526397	      5.71458590	     -2.86993885	      7.01369474	      7.35929615	      0.12844395	      5.86633415	     -8.88791512	     -7.42354630	      4.33493859	      0.04468501	     -2.75700585	      8.07037557	      0.14085463	      7.32536695	     -3.82989602	     -7.42354630	     -8.69992584	     -1.49291011	      0.34260746	      9.61376782	    -10.88336428	      6.08868378	     18.96183507	    103.50319096	      8.43635627	    -11.53452253	      1.70049581	     23.39059507	    107.56656515
